<?xml version="1.0" encoding="UTF-8"?>
<svg version="1.1" xmlns="http://www.w3.org/2000/svg" 
width="16" height="16"  viewBox="0 0 170 100">

<g transform="translate(-48 180) scale(0.2 -0.2)" 
fill="#2196F3" stroke="#1976D2" 
stroke-width="12"  
stroke-linecap="round" 
stroke-linejoin="round"> 
<path d="M626 1034 c-9 -8 -16 -21 -16 -28 0 -18 -226 -220 -253 -226 -27 -7
-35 -47 -13 -63 18 -14 65 -174 75 -257 6 -55 6 -55 41 -56 48 -3 292 -83 305
-101 16 -22 59 -13 63 14 4 28 191 200 222 205 31 4 40 46 15 64 -22 16 -78
280 -64 305 11 21 -16 53 -37 45 -16 -6 -277 73 -282 86 -9 21 -41 28 -56 12z
m40 -15 c10 -17 -13 -36 -27 -22 -12 12 -4 33 11 33 5 0 12 -5 16 -11z m182
-74 c45 -15 82 -31 82 -35 0 -5 -19 -14 -42 -20 -24 -7 -74 -20 -112 -31 -90
-24 -103 -18 -108 58 -5 76 2 85 55 68 23 -7 79 -25 125 -40z m-196 -25 c10
-81 -3 -92 -144 -128 -65 -16 -118 -28 -118 -27 0 11 234 215 243 212 7 -2 15
-28 19 -57z m338 -15 c0 -8 -9 -15 -20 -15 -20 0 -26 11 -13 23 12 13 33 7 33
-8z m-76 -144 c-28 -79 -44 -111 -55 -111 -22 0 -164 159 -153 170 15 14 228
67 238 59 5 -4 -8 -56 -30 -118z m92 -35 c14 -70 23 -133 20 -141 -4 -11 -15
-10 -64 2 -77 19 -82 35 -43 140 47 125 51 136 56 131 3 -3 17 -62 31 -132z
m-318 97 c2 -8 -5 -13 -17 -13 -12 0 -21 6 -21 16 0 18 31 15 38 -3z m-88
-122 c-25 -52 -46 -81 -57 -81 -22 0 -157 110 -146 120 4 5 60 22 123 38 85
21 116 25 118 16 2 -7 -15 -49 -38 -93z m164 10 c44 -44 74 -81 68 -85 -19
-11 -233 -29 -242 -20 -10 11 69 184 84 184 6 0 47 -35 90 -79z m-386 37 c-3
-7 -11 -13 -18 -13 -7 0 -15 6 -17 13 -3 7 4 12 17 12 13 0 20 -5 18 -12z m84
-96 c71 -54 77 -79 35 -139 -17 -24 -38 -42 -46 -41 -10 2 -24 40 -43 113 -15
61 -28 114 -28 118 0 10 13 2 82 -51z m416 -39 c-4 -22 -22 -20 -26 1 -2 10 3
16 13 16 10 0 15 -7 13 -17z m-304 -18 c3 -9 -1 -18 -10 -22 -19 -7 -28 2 -21
22 8 19 23 19 31 0z m269 -9 c16 -13 15 -19 -15 -122 -18 -60 -38 -109 -44
-109 -11 0 -194 204 -194 217 0 8 43 16 110 21 97 7 126 6 143 -7z m124 -17
c23 -6 44 -17 46 -23 4 -11 -190 -203 -197 -195 -5 6 55 213 67 227 5 7 17 10
26 8 9 -3 35 -10 58 -17z m96 -14 c1 -5 -6 -11 -15 -13 -11 -2 -18 3 -18 13 0
17 30 18 33 0z m-394 -107 c50 -56 91 -105 91 -109 0 -4 -61 13 -135 37 -99
34 -136 50 -140 65 -8 25 49 109 75 109 11 0 55 -41 109 -102z m-203 -9 c10
-17 -13 -36 -27 -22 -12 12 -4 33 11 33 5 0 12 -5 16 -11z m344 -125 c0 -8 -7
-14 -15 -14 -15 0 -21 21 -9 33 10 9 24 -2 24 -19z"/>
</g>
</svg>